<svg width="185" height="32" viewBox="0 0 185 32" fill="none" xmlns="http://www.w3.org/2000/svg">
<path d="M0 0.520752H14.0625C17.5469 0.520752 20.1875 1.41659 21.9792 3.20825C23.3646 4.59888 24.0625 6.32284 24.0625 8.37492V8.45825C24.0625 9.32284 23.9479 10.0833 23.7292 10.7499C23.5208 11.4166 23.2344 12.0155 22.875 12.5416C22.5104 13.0728 22.0885 13.5416 21.6042 13.9583C21.1302 14.3645 20.625 14.703 20.0833 14.9791C21.8438 15.6458 23.2292 16.552 24.2292 17.6874C25.2396 18.828 25.75 20.4114 25.75 22.4374V22.5208C25.75 23.9114 25.4792 25.1249 24.9375 26.1666C24.4062 27.1978 23.6458 28.0572 22.6458 28.7499C21.6562 29.4478 20.4635 29.9687 19.0625 30.3124C17.6562 30.6614 16.1094 30.8333 14.4167 30.8333H0V0.520752ZM17.4375 9.49992C17.4375 8.4895 17.0625 7.71867 16.3125 7.18742C15.5625 6.64575 14.4792 6.37492 13.0625 6.37492H6.47917V12.7708H12.625C14.0938 12.7708 15.2604 12.5208 16.125 12.0208C17 11.5208 17.4375 10.7083 17.4375 9.58325V9.49992ZM19.125 21.6041C19.125 20.6041 18.7344 19.8072 17.9583 19.2083C17.1771 18.6145 15.9219 18.3124 14.1875 18.3124H6.47917V24.9791H14.4167C15.8854 24.9791 17.0417 24.7187 17.875 24.1874C18.7083 23.6614 19.125 22.8333 19.125 21.7083V21.6041Z" fill="white"/>
<path d="M35.4307 31.2708C34.3318 31.2708 33.2953 31.1146 32.3266 30.8125C31.3682 30.5104 30.5245 30.0573 29.8057 29.4583C29.0818 28.849 28.5141 28.1042 28.0974 27.2292C27.6807 26.3438 27.4724 25.3229 27.4724 24.1667V24.0833C27.4724 22.8073 27.7016 21.7083 28.1599 20.7917C28.6182 19.8646 29.2537 19.099 30.0766 18.5C30.9099 17.8906 31.8943 17.4323 33.0349 17.125C34.1703 16.8229 35.436 16.6667 36.8266 16.6667C38.0037 16.6667 39.0349 16.7604 39.9099 16.9375C40.7953 17.1042 41.6599 17.3333 42.4932 17.625V17.25C42.4932 15.8646 42.0662 14.8073 41.2224 14.0833C40.3891 13.3646 39.1495 13 37.5141 13C36.2328 13 35.1078 13.1146 34.1391 13.3333C33.1807 13.5417 32.1651 13.849 31.0974 14.25L29.4516 9.22917C30.7276 8.6875 32.0557 8.24479 33.4307 7.89583C34.8162 7.55208 36.4985 7.375 38.4724 7.375C40.2901 7.375 41.837 7.59896 43.1182 8.04167C44.3943 8.48958 45.4568 9.125 46.3057 9.95833C47.1651 10.8333 47.7953 11.9063 48.2016 13.1667C48.6026 14.4167 48.8057 15.8229 48.8057 17.375V30.8333H42.4516V28.3125C41.6443 29.2188 40.6807 29.9375 39.5557 30.4792C38.4307 31.0052 37.0557 31.2708 35.4307 31.2708ZM37.4307 26.7292C38.9828 26.7292 40.2276 26.3542 41.1599 25.6042C42.1026 24.8542 42.5766 23.8698 42.5766 22.6458V21.4792C41.9932 21.2188 41.3474 21.0104 40.6391 20.8542C39.9412 20.7031 39.186 20.625 38.3682 20.625C36.962 20.625 35.8526 20.9063 35.0349 21.4583C34.2276 22 33.8266 22.7865 33.8266 23.8125V23.9167C33.8266 24.8073 34.1599 25.5 34.8266 26C35.4932 26.4896 36.3578 26.7292 37.4307 26.7292Z" fill="white"/>
<path d="M60.4858 31.2708C57.9702 31.2708 56.0275 30.5104 54.6525 28.9792C53.2879 27.4531 52.6108 25.3438 52.6108 22.6458V7.625H59.1941V20.5833C59.1941 22.1406 59.5379 23.3125 60.2358 24.1042C60.9285 24.8958 61.9077 25.2917 63.1733 25.2917C64.4337 25.2917 65.4337 24.8958 66.1733 24.1042C66.9077 23.3125 67.2775 22.1406 67.2775 20.5833V7.625H73.8608V30.8333H67.2775V27.5417C66.9025 28.0313 66.491 28.5 66.0483 28.9583C65.6004 29.4063 65.1004 29.8021 64.5483 30.1458C64.0066 30.4948 63.4025 30.7656 62.7358 30.9583C62.0691 31.1667 61.3191 31.2708 60.4858 31.2708Z" fill="white"/>
<path d="M78.7594 0.520752H92.6135C96.4469 0.520752 99.3844 1.552 101.426 3.60409C103.16 5.34367 104.03 7.64575 104.03 10.5208V10.6249C104.03 13.0728 103.431 15.0728 102.239 16.6249C101.041 18.1666 99.4729 19.2916 97.5302 19.9999L104.947 30.8333H97.1552L90.6552 21.1458H85.426V30.8333H78.7594V0.520752ZM92.176 15.2499C93.8115 15.2499 95.0719 14.8645 95.9469 14.0833C96.8323 13.3072 97.2802 12.2655 97.2802 10.9583V10.8749C97.2802 9.43221 96.8115 8.34888 95.8844 7.62492C94.9677 6.90617 93.6812 6.54159 92.0302 6.54159H85.426V15.2499H92.176Z" fill="#BCDC65"/>
<path d="M118.65 31.3542C116.91 31.3542 115.301 31.0677 113.817 30.5C112.327 29.9167 111.046 29.0938 109.963 28.0208C108.89 26.9531 108.051 25.6875 107.442 24.2292C106.827 22.7708 106.525 21.1458 106.525 19.3542V19.2708C106.525 17.6354 106.801 16.0781 107.358 14.6042C107.926 13.1354 108.718 11.849 109.733 10.75C110.744 9.65625 111.947 8.78646 113.338 8.14583C114.739 7.51042 116.296 7.1875 118.004 7.1875C119.931 7.1875 121.608 7.53646 123.025 8.22917C124.442 8.92708 125.614 9.85417 126.546 11.0208C127.489 12.1875 128.181 13.5365 128.629 15.0625C129.072 16.5781 129.296 18.1563 129.296 19.7917C129.296 20.0573 129.285 20.3333 129.275 20.625C129.259 20.9063 129.239 21.2031 129.213 21.5208H113.067C113.384 23.0208 114.035 24.1563 115.025 24.9167C116.025 25.6823 117.259 26.0625 118.733 26.0625C119.827 26.0625 120.806 25.875 121.671 25.5C122.546 25.125 123.442 24.5208 124.358 23.6875L128.129 27.0208C127.03 28.3854 125.702 29.4479 124.15 30.2083C122.593 30.9688 120.759 31.3542 118.65 31.3542ZM122.9 17.4167C122.692 15.9479 122.171 14.7604 121.338 13.8542C120.504 12.9375 119.39 12.4792 118.004 12.4792C116.614 12.4792 115.494 12.9323 114.65 13.8333C113.801 14.724 113.244 15.9167 112.983 17.4167H122.9Z" fill="#BCDC65"/>
<path d="M140.635 31.2708C138.994 31.2708 137.312 30.9895 135.593 30.4375C133.869 29.8698 132.228 28.9739 130.676 27.75L133.489 23.4375C134.765 24.3541 136.031 25.052 137.281 25.5208C138.531 25.9791 139.702 26.2083 140.801 26.2083C141.76 26.2083 142.458 26.052 142.906 25.7291C143.348 25.4114 143.572 24.9948 143.572 24.4791V24.375C143.572 24.0312 143.437 23.7291 143.176 23.4791C142.926 23.2187 142.572 22.9948 142.114 22.8125C141.666 22.6198 141.156 22.4375 140.572 22.2708C139.999 22.0937 139.406 21.9062 138.781 21.7083C137.958 21.4739 137.14 21.1875 136.322 20.8541C135.499 20.5208 134.76 20.0937 134.093 19.5625C133.426 19.0208 132.885 18.3645 132.468 17.5833C132.051 16.8073 131.843 15.8541 131.843 14.7291V14.6458C131.843 13.4687 132.062 12.427 132.51 11.5208C132.968 10.6041 133.577 9.82808 134.343 9.18746C135.103 8.55204 135.994 8.07808 137.01 7.77079C138.036 7.45308 139.14 7.29163 140.322 7.29163C141.791 7.29163 143.286 7.53121 144.801 7.99996C146.327 8.47392 147.723 9.12496 148.989 9.95829L146.468 14.5208C145.312 13.8541 144.187 13.3281 143.093 12.9375C141.994 12.552 141.031 12.3541 140.197 12.3541C139.39 12.3541 138.786 12.5104 138.385 12.8125C137.978 13.1041 137.781 13.4895 137.781 13.9583V14.0416C137.781 14.3645 137.906 14.6458 138.156 14.8958C138.416 15.1354 138.765 15.3645 139.197 15.5833C139.64 15.7916 140.14 16 140.697 16.2083C141.265 16.4062 141.864 16.6041 142.489 16.8125C143.307 17.0625 144.135 17.3698 144.968 17.7291C145.801 18.0937 146.551 18.5364 147.218 19.0625C147.885 19.5781 148.432 20.2083 148.864 20.9583C149.291 21.7083 149.51 22.6198 149.51 23.6875V23.7708C149.51 25.0781 149.286 26.2031 148.843 27.1458C148.395 28.0781 147.765 28.8489 146.947 29.4583C146.14 30.0573 145.197 30.5104 144.114 30.8125C143.031 31.1145 141.869 31.2708 140.635 31.2708Z" fill="#BCDC65"/>
<path d="M180.274 31.75L176.941 28.75C175.649 29.599 174.253 30.2448 172.753 30.6875C171.253 31.1302 169.649 31.3542 167.941 31.3542C165.607 31.3542 163.451 30.9427 161.482 30.125C159.524 29.2917 157.826 28.1823 156.399 26.7917C154.967 25.3906 153.857 23.7448 153.066 21.8542C152.274 19.9688 151.878 17.9375 151.878 15.7708V15.6875C151.878 13.5208 152.279 11.4948 153.087 9.60417C153.904 7.71875 155.024 6.05729 156.441 4.625C157.868 3.19792 159.571 2.07292 161.545 1.25C163.529 0.416667 165.691 0 168.024 0C170.368 0 172.524 0.416667 174.482 1.25C176.441 2.07292 178.134 3.18229 179.566 4.58333C180.993 5.97396 182.107 7.61979 182.899 9.52083C183.691 11.4115 184.087 13.4375 184.087 15.6042V15.6875C184.087 17.3021 183.847 18.8333 183.378 20.2917C182.904 21.75 182.243 23.1146 181.399 24.375L184.524 27.0208L180.274 31.75ZM168.024 25.2083C168.774 25.2083 169.472 25.1406 170.128 25C170.779 24.849 171.389 24.6406 171.962 24.375L167.087 20.1875L171.316 15.4167L176.295 19.9167C176.847 18.6563 177.128 17.2708 177.128 15.7708V15.6875C177.128 14.3854 176.899 13.1563 176.441 12C175.993 10.849 175.363 9.84375 174.545 8.97917C173.722 8.10417 172.753 7.41667 171.628 6.91667C170.503 6.41667 169.274 6.16667 167.941 6.16667C166.576 6.16667 165.342 6.41146 164.232 6.89583C163.118 7.38542 162.17 8.0625 161.378 8.9375C160.587 9.80208 159.967 10.8021 159.524 11.9375C159.076 13.0781 158.857 14.3021 158.857 15.6042V15.6875C158.857 16.9792 159.076 18.2031 159.524 19.3542C159.967 20.5104 160.597 21.5208 161.42 22.3958C162.253 23.2604 163.222 23.9479 164.337 24.4583C165.446 24.9583 166.675 25.2083 168.024 25.2083Z" fill="#BCDC65"/>
</svg>
